Coordinates
version=1
nRows=8
nColumns=60
inDegrees=yes

Units are S.I. units (second, meters, Newtons, ...)
If the header above contains a line with 'inDegrees', this indicates whether rotational values are in degrees (yes) or radians (no).

endheader
time	pelvis_tilt	pelvis_list	pelvis_rotation	pelvis_tx	pelvis_ty	pelvis_tz	hip_flexion_r	hip_adduction_r	hip_rotation_r	knee_angle_r_beta	knee_angle_r	ankle_angle_r	subtalar_angle_r	mtp_angle_r	hip_flexion_l	hip_adduction_l	hip_rotation_l	knee_angle_l_beta	knee_angle_l	ankle_angle_l	subtalar_angle_l	mtp_angle_l	L5_S1_Flex_Ext	L5_S1_Lat_Bending	L5_S1_axial_rotation	L4_L5_Flex_Ext	L4_L5_Lat_Bending	L4_L5_axial_rotation	L3_L4_Flex_Ext	L3_L4_Lat_Bending	L3_L4_axial_rotation	L2_L3_Flex_Ext	L2_L3_Lat_Bending	L2_L3_axial_rotation	L1_L2_Flex_Ext	L1_L2_Lat_Bending	L1_L2_axial_rotation	L1_T12_Flex_Ext	L1_T12_Lat_Bending	L1_T12_axial_rotation	Abs_r3	Abs_r2	Abs_r1	Abs_t1	Abs_t2	arm_flex_r	arm_add_r	arm_rot_r	elbow_flex_r	pro_sup_r	wrist_flex_r	wrist_dev_r	arm_flex_l	arm_add_l	arm_rot_l	elbow_flex_l	pro_sup_l	wrist_flex_l	wrist_dev_l
     44.23000000	      0.30124812	     -1.28644789	     89.81373890	      0.40343418	      0.93084868	      0.30703180	     14.28491078	     -4.40038767	      4.24830297	      0.27694550	    -15.86780830	      4.58813227	      0.00000000	      0.00000000	     13.43480311	     -5.65165993	     -0.30573843	      0.24160661	    -13.84303887	      5.33365014	      0.00000000	      0.00000000	     -6.83934312	      0.09204945	      0.12905387	    -12.70134412	      0.12242577	      0.13711974	    -11.23635682	      0.22380903	      0.13711974	     -7.81668526	      0.22380903	      0.11292214	     -6.35101402	      0.18770723	      0.10485627	     -3.90800066	      0.14258459	      0.09679040	    -48.85274400	      1.04128176	      0.71775891	      0.00000000	      0.00000000	     84.71279097	    -17.07981834	     17.97738619	     45.24591381	     60.29170443	     20.66450309	     27.35102152	     86.99922567	    -19.80321978	     28.51801996	     39.96564353	     50.14971988	     24.01823244	     16.78634611
     44.24000000	      0.30950204	     -1.40313434	     89.93222804	      0.40360403	      0.93064905	      0.30882529	     14.48866205	     -4.38975862	      4.23735493	      0.27602571	    -15.81510849	      4.56836297	      0.00000000	      0.00000000	     13.67497998	     -5.66403583	     -0.31666777	      0.24035258	    -13.77118871	      5.29159251	      0.00000000	      0.00000000	     -6.85874909	      0.08907755	      0.10940431	    -12.73738293	      0.11847315	      0.11624207	    -11.26823888	      0.21658316	      0.11624207	     -7.83886433	      0.21658316	      0.09572877	     -6.36903440	      0.18164695	      0.08889100	     -3.91908923	      0.13798113	      0.08205323	    -48.99135886	      1.00766309	      0.60847392	      0.00000000	      0.00000000	     85.11140953	    -17.05290096	     17.93475856	     45.25722964	     60.30779047	     20.65966153	     27.33990570	     87.37999197	    -19.71658048	     28.46701804	     39.98036177	     50.15155149	     24.00460754	     16.76913819
     44.25000000	      0.24771348	     -1.54662448	     90.12499403	      0.40360511	      0.93041166	      0.31079482	     14.77844631	     -4.48165951	      4.16399697	      0.27690079	    -15.86524661	      4.33186950	      0.00000000	      0.00000000	     14.03888663	     -5.56409757	     -0.01164815	      0.24162371	    -13.84401894	      4.82563507	      0.00000000	      0.00000000	     -6.85992849	      0.08321747	      0.06254350	    -12.73957321	      0.11067924	      0.06645247	    -11.27017652	      0.20233496	      0.06645247	     -7.84021228	      0.20233496	      0.05472557	     -6.37012960	      0.16969707	      0.05081660	     -3.91976314	      0.12890386	      0.04690763	    -48.99978324	      0.94137269	      0.34784821	      0.00000000	      0.00000000	     85.72355650	    -16.80248134	     18.11433511	     44.56046744	     60.43318436	     20.60450636	     27.38518207	     87.88763955	    -19.49744688	     28.47378874	     39.38941175	     50.15008763	     23.86565132	     16.76677096
     44.26000000	      0.26283768	     -1.64311984	     90.23501182	      0.40378220	      0.93023102	      0.31252218	     14.95756272	     -4.46432823	      4.12254230	      0.27588749	    -15.80718873	      4.34026555	      0.00000000	      0.00000000	     14.24452560	     -5.58477504	     -0.05835642	      0.24011897	    -13.75780372	      4.82565186	      0.00000000	      0.00000000	     -6.87012496	      0.08151932	      0.04770648	    -12.75850906	      0.10842069	      0.05068813	    -11.28692829	      0.19820607	      0.05068813	     -7.85186581	      0.19820607	      0.04174317	     -6.37959804	      0.16623419	      0.03876151	     -3.92558940	      0.12627342	      0.03577986	    -49.07261556	      0.92216281	      0.26532912	      0.00000000	      0.00000000	     86.08271618	    -16.76584082	     18.10814592	     44.48885905	     60.45315656	     20.59211358	     27.37897522	     88.21673427	    -19.40456577	     28.44337945	     39.37427124	     50.14583505	     23.84422548	     16.75276445
     44.27000000	      0.27272407	     -1.72060596	     90.39175438	      0.40381182	      0.92997356	      0.31436132	     15.17399916	     -4.48314867	      3.94346921	      0.27687991	    -15.86405048	      4.24461187	      0.00000000	      0.00000000	     14.49147827	     -5.57227925	      0.11076261	      0.24032365	    -13.76953106	      4.59976887	      0.00000000	      0.00000000	     -6.85535550	      0.08309031	      0.00266827	    -12.73108070	      0.11051012	      0.00283503	    -11.26266355	      0.20202579	      0.00283503	     -7.83498580	      0.20202579	      0.00233473	     -6.36588312	      0.16943777	      0.00216797	     -3.91715013	      0.12870690	      0.00200120	    -48.96711879	      0.93993426	      0.01484010	      0.00000000	      0.00000000	     86.92513666	    -16.32346663	     18.74664955	     42.92243598	     60.73603425	     20.42087078	     27.34140499	     88.69975856	    -19.18135494	     28.65281532	     38.35140592	     50.06538604	     23.51661316	     16.70881944
     44.28000000	      0.23824779	     -1.74571611	     90.51295710	      0.40391274	      0.92985723	      0.31609229	     15.30809373	     -4.54353167	      3.82199088	      0.27692374	    -15.86656175	      4.08189998	      0.00000000	      0.00000000	     14.67470450	     -5.52828991	      0.16581824	      0.24080822	    -13.79729483	      4.31060506	      0.00000000	      0.00000000	     -6.85454046	      0.07731692	     -0.02667822	    -12.72956708	      0.10283150	     -0.02834561	    -11.26132451	      0.18798836	     -0.02834561	     -7.83405429	      0.18798836	     -0.02334345	     -6.36512627	      0.15766466	     -0.02167606	     -3.91668442	      0.11976391	     -0.02000867	    -48.96129702	      0.87462446	     -0.14837627	      0.00000000	      0.00000000	     87.39023181	    -16.14062506	     19.06349065	     42.21962284	     60.84306335	     20.32146240	     27.25595125	     89.07969231	    -19.04844967	     28.78851059	     37.88684327	     49.99729534	     23.34746775	     16.67924142
     44.29000000	      0.25421287	     -1.74994788	     90.55866273	      0.40407893	      0.92976050	      0.31761504	     15.39075815	     -4.52636943	      3.79444827	      0.27637551	    -15.83515003	      4.08267957	      0.00000000	      0.00000000	     14.76184988	     -5.55251185	      0.12935492	      0.23996412	    -13.74893153	      4.31276045	      0.00000000	      0.00000000	     -6.85580268	      0.07549819	     -0.03250200	    -12.73191116	      0.10041259	     -0.03453337	    -11.26339823	      0.18356630	     -0.03453337	     -7.83549689	      0.18356630	     -0.02843925	     -6.36629837	      0.15395591	     -0.02640787	     -3.91740565	      0.11694670	     -0.02437650	    -48.97031299	      0.85405063	     -0.18076636	      0.00000000	      0.00000000	     87.56046597	    -16.10290054	     19.09328223	     42.15285683	     60.85172357	     20.30804544	     27.23984964	     89.27215831	    -18.99922094	     28.79786219	     37.86086762	     49.98900441	     23.32904384	     16.67269382
     44.30000000	      0.24269292	     -1.55057213	     90.59172895	      0.40422491	      0.92990016	      0.31922724	     15.27081941	     -4.55699057	      3.63295970	      0.27573132	    -15.79824101	      3.91736992	      0.00000000	      0.00000000	     14.63337319	     -5.55994480	      0.03707815	      0.23864076	    -13.67310861	      4.10819529	      0.00000000	      0.00000000	     -6.86569747	      0.07143508	     -0.05896534	    -12.75028678	      0.09500866	     -0.06265068	    -11.27965438	      0.17368725	     -0.06265068	     -7.84680564	      0.17368725	     -0.05159468	     -6.37548667	      0.14567041	     -0.04790934	     -3.92305954	      0.11065294	     -0.04422401	    -49.04099047	      0.80808791	     -0.32794756	      0.00000000	      0.00000000	     88.31501388	    -15.80947836	     20.42396194	     40.54471992	     60.75849683	     19.47277007	     25.64361983	     89.91835750	    -19.04618923	     30.27071679	     36.82082786	     48.91047170	     22.26264954	     16.37194059
